<?xml version="1.0" standalone="no"?>
<!DOCTYPE svg PUBLIC "-//W3C//DTD SVG 20010904//EN"
 "http://www.w3.org/TR/2001/REC-SVG-20010904/DTD/svg10.dtd">
<svg version="1.0" xmlns="http://www.w3.org/2000/svg"
 width="700.000000pt" height="700.000000pt" viewBox="0 0 700.000000 700.000000"
 preserveAspectRatio="xMidYMid meet">
<metadata>
Created by potrace 1.11, written by Peter Selinger 2001-2013
</metadata>
<g transform="translate(0.000000,700.000000) scale(0.100000,-0.100000)"
fill="#000000" stroke="none">
<path d="M2733 5933 c-23 -15 -56 -41 -75 -58 -18 -16 -56 -48 -83 -70 -28
-21 -52 -42 -55 -45 -3 -3 -71 -60 -152 -127 l-147 -123 -36 114 c-31 102 -39
117 -69 135 -18 12 -50 21 -71 21 -32 0 -45 -8 -89 -52 -28 -29 -69 -75 -91
-103 -22 -27 -46 -56 -53 -63 -7 -8 -61 -71 -119 -140 -59 -70 -110 -129 -113
-132 -3 -3 -43 -49 -89 -102 -45 -54 -86 -98 -89 -97 -4 0 -34 39 -67 87 -129
185 -151 203 -225 187 -41 -9 -86 -60 -94 -105 -2 -8 -96 -241 -112 -275 -8
-16 -41 -100 -75 -185 -85 -216 -69 -199 -142 -142 -237 185 -258 197 -320
167 -38 -18 -67 -61 -67 -99 0 -15 7 -59 15 -99 8 -40 16 -83 19 -97 6 -38 75
-395 91 -475 36 -176 48 -252 48 -290 0 -35 -13 -198 -18 -223 -1 -9 -6 -53
-10 -97 -4 -44 -7 -80 -8 -81 -20 -13 -205 -120 -212 -123 -30 -11 -117 -75
-145 -108 -56 -63 -75 -117 -75 -213 0 -71 5 -95 27 -142 41 -88 108 -145 218
-185 128 -46 717 -265 735 -273 20 -9 200 -76 340 -127 39 -14 79 -29 90 -34
11 -5 65 -25 120 -45 55 -19 123 -45 152 -56 l51 -21 -14 -41 c-8 -23 -18 -50
-23 -61 -11 -24 -39 -96 -56 -144 -8 -20 -20 -36 -31 -37 -32 -5 -127 -36
-174 -57 -103 -46 -206 -134 -264 -226 -60 -95 -98 -276 -73 -350 7 -19 25
-44 40 -55 28 -21 33 -21 880 -23 497 0 867 3 889 8 43 11 56 28 126 159 28
52 98 183 156 290 l104 195 490 3 489 2 13 -77 12 -78 -33 -25 c-61 -45 -196
-183 -249 -255 -50 -66 -52 -71 -46 -118 6 -57 15 -70 59 -90 27 -12 162 -14
919 -13 l886 1 27 25 c15 14 31 34 35 46 5 11 11 94 15 185 4 90 8 184 10 209
2 25 7 128 11 230 4 102 8 199 10 215 1 17 2 49 3 71 l1 42 73 -14 c39 -8 92
-17 117 -20 25 -3 47 -7 50 -9 4 -2 185 -37 310 -58 14 -3 88 -16 165 -30 215
-40 237 -42 273 -23 38 20 62 62 62 109 0 25 -11 49 -42 88 -23 30 -45 56 -48
59 -3 3 -82 95 -175 205 l-168 200 152 5 153 5 29 33 c22 25 29 42 29 75 0 37
-16 67 -125 239 -69 109 -125 200 -125 203 0 3 50 5 111 5 125 0 164 12 192
59 22 37 22 89 -1 122 -16 24 -171 218 -182 229 -3 3 -36 43 -74 90 l-68 84
143 48 c156 52 186 72 196 131 9 57 -12 92 -76 131 -57 34 -560 311 -639 352
l-43 22 144 91 c92 58 148 100 155 116 21 45 15 92 -15 125 -31 34 -44 39
-393 150 -124 39 -246 78 -272 86 -27 9 -48 19 -48 22 0 4 23 65 50 135 55
142 60 181 29 221 -41 52 -11 49 -725 57 -208 3 -212 3 -209 23 40 247 41 285
15 319 -12 15 -34 34 -50 42 -25 13 -37 13 -95 1 -23 -5 -571 -132 -760 -176
-71 -17 -141 -33 -155 -35 -14 -3 -40 -9 -57 -14 -18 -5 -34 -9 -34 -8 -1 1
-2 72 -3 157 -3 191 -15 219 -105 235 -40 7 -29 13 -397 -218 -170 -106 -330
-206 -355 -220 l-45 -27 0 186 c1 201 -4 231 -48 259 -45 30 -87 29 -133 -2z"/>
</g>
</svg>
